<svg width="42" height="48" viewBox="0 0 42 48" fill="none" xmlns="http://www.w3.org/2000/svg">
<path d="M0.017363 0.111124C0.0277808 0.173631 0.882039 9.73368 1.91687 21.3565C2.95171 32.9792 3.79902 42.4907 3.80249 42.4941C3.80596 42.4976 7.62929 43.5637 12.3034 44.859L20.8008 47.2203L29.3191 44.859C34.0036 43.5602 37.8409 42.4941 37.8409 42.4907C37.8443 42.4907 38.6916 32.9862 39.7265 21.3738C40.7613 9.76146 41.6156 0.201412 41.626 0.128487L41.6468 0H0L0.017363 0.111124ZM33.8613 8.75788C33.8613 8.83428 33.6147 11.6089 32.1632 27.8641C31.802 31.9097 31.493 35.2329 31.4756 35.2468C31.4374 35.2816 20.8946 38.1985 20.8113 38.1985C20.7453 38.1985 10.1504 35.2677 10.1261 35.2399C10.1191 35.2329 9.95593 33.455 9.76494 31.2881C9.57047 29.1212 9.40726 27.2807 9.39337 27.1974L9.376 27.0515H11.9978C13.4424 27.0515 14.6231 27.055 14.6266 27.0585C14.6266 27.0654 14.7099 27.9961 14.8141 29.1281C14.9148 30.2637 15.0051 31.1943 15.012 31.2013C15.019 31.2082 16.3212 31.5659 17.9116 31.993L20.7974 32.7743L23.69 31.993C25.284 31.5624 26.5931 31.2047 26.6001 31.2013C26.614 31.1839 27.1904 24.7527 27.1939 24.5756V24.4471H9.1364V24.3603C9.1364 24.3116 9.03569 23.1414 8.91068 21.7628C8.78566 20.3841 8.68496 19.2521 8.68496 19.2451C8.68496 19.2416 12.9597 19.2382 18.1825 19.2382H27.68V19.1514C27.68 19.1062 27.7808 17.9255 27.9058 16.5365C28.0308 15.144 28.1315 13.9772 28.1315 13.9459C28.1315 13.8939 27.364 13.8904 18.1756 13.8834L8.21616 13.873L8.00433 11.5117C7.88626 10.2129 7.77861 9.04611 7.76472 8.91415L7.74389 8.68149H33.8613V8.75788Z" fill="url(#paint0_linear_402_21)"/>
<defs>
<linearGradient id="paint0_linear_402_21" x1="1.47631e-09" y1="47.2204" x2="43.3642" y2="47.2204" gradientUnits="userSpaceOnUse">
<stop stop-color="#00A3FF"/>
<stop offset="1" stop-color="#005AE0"/>
</linearGradient>
</defs>
</svg>
